<svg id="Calque_1" data-name="Calque 1" xmlns="http://www.w3.org/2000/svg" xmlns:xlink="http://www.w3.org/1999/xlink" viewBox="0 0 377.49 384"><defs><style>.cls-1{fill:none;}.cls-2{clip-path:url(#clip-path);}.cls-3{fill:#e8d5b2;}.cls-4{fill:#cbb292;}.cls-5{fill:#66381b;}</style><clipPath id="clip-path" transform="translate(-108.26 -229.89)"><rect class="cls-1" x="108" y="229.89" width="378" height="384"/></clipPath></defs><title>picto-prix</title><g class="cls-2"><path class="cls-3" d="M301.69,262.43,113.08,452.6a16.45,16.45,0,0,0,0,23.27l133.2,133.2a16.45,16.45,0,0,0,23.27,0L453.2,420.46v-158Zm86.43,91.12a26,26,0,1,1,26-26,26,26,0,0,1-26,26Zm0,0" transform="translate(-108.26 -229.89)"/><path class="cls-4" d="M388.12,275.45a52.07,52.07,0,1,0,52.07,52.07,52.07,52.07,0,0,0-52.07-52.07Zm0,78.1a26,26,0,1,1,26-26,26,26,0,0,1-26,26Zm0,0" transform="translate(-108.26 -229.89)"/><path class="cls-5" d="M388.12,334a6.51,6.51,0,0,1-4.6-11.11l91.12-91.12a6.51,6.51,0,1,1,9.2,9.2l-91.12,91.12a6.48,6.48,0,0,1-4.6,1.91Zm0,0" transform="translate(-108.26 -229.89)"/></g></svg>