<svg id="Calque_1" data-name="Calque 1" xmlns="http://www.w3.org/2000/svg" viewBox="0 0 40 48"><defs><style>.cls-1{fill:#e6e6e6;}.cls-2{fill:#9e6c53;}.cls-3{fill:#8a5336;}.cls-4{fill:#ebba16;}</style></defs><title>picto-duree</title><path class="cls-1" d="M306.48,415.57a5.66,5.66,0,0,0,2.52-4.7v-9H285v9a5.66,5.66,0,0,0,2.52,4.7L295,421a1.06,1.06,0,0,1,0,1.7l-7.45,5.47a5.66,5.66,0,0,0-2.52,4.7v9h24v-9a5.66,5.66,0,0,0-2.52-4.7L299,422.74a1.06,1.06,0,0,1,0-1.7Zm0,0" transform="translate(-277 -397.89)"/><rect class="cls-2" x="4" y="44" width="32" height="3.2"/><rect class="cls-2" x="4" y="0.8" width="32" height="3.2"/><path class="cls-3" d="M316.2,444.29H277.8a.8.8,0,0,0,0,1.6h38.4a.8.8,0,0,0,0-1.6Zm0,0" transform="translate(-277 -397.89)"/><path class="cls-3" d="M277.8,399.49h38.4a.8.8,0,0,0,0-1.6H277.8a.8.8,0,0,0,0,1.6Zm0,0" transform="translate(-277 -397.89)"/><path class="cls-4" d="M305.15,413.57a3.24,3.24,0,0,0,1.45-2.7,2.27,2.27,0,0,0-1.72-2.21l-12.05-3a4.37,4.37,0,0,0-5.43,4.24v1a3.24,3.24,0,0,0,1.45,2.7l7.35,5.4v12.7a4,4,0,0,1-5.65,3.61,2.2,2.2,0,0,0-3.15,1.88v4.73h19.2v-9a2.54,2.54,0,0,0-3-2.39l-1.64.28a3.52,3.52,0,0,1-4.13-3.47V419Zm0,0" transform="translate(-277 -397.89)"/></svg>